# xmcd
#
# Track frame offsets:
#	150
#	16104
#	28924
#	43144
#	57212
#	71691
#	88656
#	103956
#	115925
#	132169
#	150073
#	171497
#
# Disc length: 2460 seconds
#
# Revision: 1
# Processed by: cddbd v1.5.2PL0 Copyright (c) Steve Scherf et al.
# Submitted via: audiograbber 1.83.01
#
DISCID=9d099a0c
DTITLE=J.J. Cale - Roll On
DYEAR=2009
DGENRE=
TTITLE0=Who Knew
TTITLE1=Former Me
TTITLE2=Where The Sun Don't Shine
TTITLE3=Down To Memphis
TTITLE4=Strange Days
TTITLE5=Cherry Street
TTITLE6=Fonda-Lina
TTITLE7=Leaving In The Morning
TTITLE8=Oh Mary
TTITLE9=Old Friend
TTITLE10=Roll On
TTITLE11=Bring Down The Curtain
EXTD=
EXTT0=
EXTT1=
EXTT2=
EXTT3=
EXTT4=
EXTT5=
EXTT6=
EXTT7=
EXTT8=
EXTT9=
EXTT10=
EXTT11=
PLAYORDER=
